# xmcd
#
# Track frame offsets: 
#        150
#        23090
#        45110
#        73570
#        100945
#        126303
#        146203
#        169900
#        192793
#        217003
#
# Disc length: 3188 seconds
#
# Revision: 0
# Processed by: cddbd v1.5.2PL0 Copyright (c) Steve Scherf et al.
# Submitted via: ExactAudioCopy v1.0b3
#
DISCID=8e0c720a
DTITLE=My Huyen - Khong chu de
DYEAR=1994
DGENRE=
TTITLE0=Duyen tinh
TTITLE1=Khung troi tuong nho
TTITLE2=Lan va Diep 2
TTITLE3=Ai kho vi ai
TTITLE4=Cho vua long em
TTITLE5=Chuyen mot chiec cau
TTITLE6=Xom dem
TTITLE7=Xin nguoi tra lai cho toi
TTITLE8=Doi nga chia ly
TTITLE9=Neu mot mai em se qua doi
EXTD=
EXTT0=
EXTT1=
EXTT2=
EXTT3=
EXTT4=
EXTT5=
EXTT6=
EXTT7=
EXTT8=
EXTT9=
PLAYORDER=
